<?xml version="1.0" encoding="UTF-8" standalone="no"?>
<svg
   xmlns:dc="http://purl.org/dc/elements/1.1/"
   xmlns:cc="http://creativecommons.org/ns#"
   xmlns:rdf="http://www.w3.org/1999/02/22-rdf-syntax-ns#"
   xmlns:svg="http://www.w3.org/2000/svg"
   xmlns="http://www.w3.org/2000/svg"
   xmlns:sodipodi="http://sodipodi.sourceforge.net/DTD/sodipodi-0.dtd"
   xmlns:inkscape="http://www.inkscape.org/namespaces/inkscape"
   version="1.1"
   width="560"
   height="300"
   id="svg1093"
   sodipodi:docname="circuit.svg"
   inkscape:version="1.0.2 (e86c8708, 2021-01-15)">
  <metadata
     id="metadata1099">
    <rdf:RDF>
      <cc:Work
         rdf:about="">
        <dc:format>image/svg+xml</dc:format>
        <dc:type
           rdf:resource="http://purl.org/dc/dcmitype/StillImage" />
      </cc:Work>
    </rdf:RDF>
  </metadata>
  <defs
     id="defs1097" />
  <sodipodi:namedview
     pagecolor="#ffffff"
     bordercolor="#666666"
     borderopacity="1"
     objecttolerance="10"
     gridtolerance="10"
     guidetolerance="10"
     inkscape:pageopacity="0"
     inkscape:pageshadow="2"
     inkscape:window-width="1303"
     inkscape:window-height="696"
     id="namedview1095"
     showgrid="false"
     inkscape:zoom="1.2714286"
     inkscape:cx="280"
     inkscape:cy="150"
     inkscape:window-x="0"
     inkscape:window-y="25"
     inkscape:window-maximized="0"
     inkscape:current-layer="svg1093" />
  <text
     x="490"
     y="145"
     style="font-family:Arial;font-size:12px;text-anchor:middle"
     dominant-baseline="baseline"
     transform="rotate(0, 490, 145)"
     id="text833" />
  <line
     x1="490"
     y1="153"
     x2="490"
     y2="190"
     style="stroke:rgb(0, 0, 0);stroke-linecap:square;stroke-width:2"
     id="line835" />
  <ellipse
     cx="490"
     cy="150"
     rx="3"
     ry="3"
     style="fill-opacity:1;fill:#ff0000;stroke:rgb(0, 0, 0);stroke-width:2"
     id="ellipse837" />
  <text
     x="440"
     y="95"
     style="font-family:Arial;font-size:12px;text-anchor:middle"
     dominant-baseline="baseline"
     transform="rotate(0, 440, 95)"
     id="text839" />
  <line
     x1="440"
     y1="103"
     x2="440"
     y2="180"
     style="stroke:rgb(0, 0, 0);stroke-linecap:square;stroke-width:2"
     id="line841" />
  <ellipse
     cx="440"
     cy="100"
     rx="3"
     ry="3"
     style="fill-opacity:1;fill:#26ff00;stroke:rgb(0, 0, 0);stroke-width:2"
     id="ellipse843" />
  <text
     x="430"
     y="95"
     style="font-family:Arial;font-size:12px;text-anchor:middle"
     dominant-baseline="baseline"
     transform="rotate(0, 430, 95)"
     id="text845" />
  <line
     x1="430"
     y1="103"
     x2="430"
     y2="170"
     style="stroke:rgb(0, 0, 0);stroke-linecap:square;stroke-width:2"
     id="line847" />
  <ellipse
     cx="430"
     cy="100"
     rx="3"
     ry="3"
     style="fill-opacity:1;fill:#ffff00;stroke:rgb(0, 0, 0);stroke-width:2"
     id="ellipse849" />
  <text
     x="360"
     y="95"
     style="font-family:Arial;font-size:12px;text-anchor:middle"
     dominant-baseline="baseline"
     transform="rotate(0, 360, 95)"
     id="text851" />
  <line
     x1="360"
     y1="103"
     x2="360"
     y2="180"
     style="stroke:rgb(0, 0, 0);stroke-linecap:square;stroke-width:2"
     id="line853" />
  <ellipse
     cx="360"
     cy="100"
     rx="3"
     ry="3"
     style="fill-opacity:1;fill:#26ff00;stroke:rgb(0, 0, 0);stroke-width:2"
     id="ellipse855" />
  <text
     x="290"
     y="95"
     style="font-family:Arial;font-size:12px;text-anchor:middle"
     dominant-baseline="baseline"
     transform="rotate(0, 290, 95)"
     id="text857" />
  <line
     x1="290"
     y1="103"
     x2="290"
     y2="170"
     style="stroke:rgb(0, 0, 0);stroke-linecap:square;stroke-width:2"
     id="line859" />
  <ellipse
     cx="290"
     cy="100"
     rx="3"
     ry="3"
     style="fill-opacity:1;fill:#ffff00;stroke:rgb(0, 0, 0);stroke-width:2"
     id="ellipse861" />
  <text
     x="330"
     y="145"
     style="font-family:Arial;font-size:12px;text-anchor:middle"
     dominant-baseline="baseline"
     transform="rotate(0, 330, 145)"
     id="text863" />
  <line
     x1="330"
     y1="153"
     x2="330"
     y2="190"
     style="stroke:rgb(0, 0, 0);stroke-linecap:square;stroke-width:2"
     id="line865" />
  <ellipse
     cx="330"
     cy="150"
     rx="3"
     ry="3"
     style="fill-opacity:1;fill:#ff0000;stroke:rgb(0, 0, 0);stroke-width:2"
     id="ellipse867" />
  <text
     x="320"
     y="145"
     style="font-family:Arial;font-size:12px;text-anchor:middle"
     dominant-baseline="baseline"
     transform="rotate(0, 320, 145)"
     id="text869" />
  <line
     x1="320"
     y1="153"
     x2="320"
     y2="170"
     style="stroke:rgb(0, 0, 0);stroke-linecap:square;stroke-width:2"
     id="line871" />
  <ellipse
     cx="320"
     cy="150"
     rx="3"
     ry="3"
     style="fill-opacity:1;fill:#ffff00;stroke:rgb(0, 0, 0);stroke-width:2"
     id="ellipse873" />
  <text
     x="400"
     y="145"
     style="font-family:Arial;font-size:12px;text-anchor:middle"
     dominant-baseline="baseline"
     transform="rotate(0, 400, 145)"
     id="text875" />
  <line
     x1="400"
     y1="153"
     x2="400"
     y2="190"
     style="stroke:rgb(0, 0, 0);stroke-linecap:square;stroke-width:2"
     id="line877" />
  <ellipse
     cx="400"
     cy="150"
     rx="3"
     ry="3"
     style="fill-opacity:1;fill:#ff0000;stroke:rgb(0, 0, 0);stroke-width:2"
     id="ellipse879" />
  <text
     x="390"
     y="145"
     style="font-family:Arial;font-size:12px;text-anchor:middle"
     dominant-baseline="baseline"
     transform="rotate(0, 390, 145)"
     id="text881" />
  <line
     x1="390"
     y1="153"
     x2="390"
     y2="180"
     style="stroke:rgb(0, 0, 0);stroke-linecap:square;stroke-width:2"
     id="line883" />
  <ellipse
     cx="390"
     cy="150"
     rx="3"
     ry="3"
     style="fill-opacity:1;fill:#26ff00;stroke:rgb(0, 0, 0);stroke-width:2"
     id="ellipse885" />
  <text
     x="470"
     y="145"
     style="font-family:Arial;font-size:12px;text-anchor:middle"
     dominant-baseline="baseline"
     transform="rotate(0, 470, 145)"
     id="text887" />
  <line
     x1="470"
     y1="153"
     x2="470"
     y2="170"
     style="stroke:rgb(0, 0, 0);stroke-linecap:square;stroke-width:2"
     id="line889" />
  <ellipse
     cx="470"
     cy="150"
     rx="3"
     ry="3"
     style="fill-opacity:1;fill:#ffff00;stroke:rgb(0, 0, 0);stroke-width:2"
     id="ellipse891" />
  <text
     x="480"
     y="145"
     style="font-family:Arial;font-size:12px;text-anchor:middle"
     dominant-baseline="baseline"
     transform="rotate(0, 480, 145)"
     id="text893" />
  <line
     x1="480"
     y1="153"
     x2="480"
     y2="180"
     style="stroke:rgb(0, 0, 0);stroke-linecap:square;stroke-width:2"
     id="line895" />
  <ellipse
     cx="480"
     cy="150"
     rx="3"
     ry="3"
     style="fill-opacity:1;fill:#00ff00;stroke:rgb(0, 0, 0);stroke-width:2"
     id="ellipse897" />
  <line
     x1="190"
     y1="170"
     x2="470"
     y2="170"
     style="stroke:rgb(0, 0, 0);stroke-linecap:square;stroke-width:2"
     id="line899" />
  <line
     x1="190"
     y1="190"
     x2="520"
     y2="190"
     style="stroke:rgb(0, 0, 0);stroke-linecap:square;stroke-width:2"
     id="line901" />
  <text
     x="520"
     y="95"
     style="font-family:Arial;font-size:12px;text-anchor:middle"
     dominant-baseline="baseline"
     transform="rotate(0, 520, 95)"
     id="text903" />
  <line
     x1="520"
     y1="103"
     x2="520"
     y2="190"
     style="stroke:rgb(0, 0, 0);stroke-linecap:square;stroke-width:2"
     id="line905" />
  <ellipse
     cx="520"
     cy="100"
     rx="3"
     ry="3"
     style="fill-opacity:1;fill:#ff0000;stroke:rgb(0, 0, 0);stroke-width:2"
     id="ellipse907" />
  <line
     x1="190"
     y1="180"
     x2="480"
     y2="180"
     style="stroke:rgb(0, 0, 0);stroke-linecap:square;stroke-width:2"
     id="line909" />
  <text
     x="418"
     y="60"
     style="font-family:Arial;font-size:12px;text-anchor:start"
     dominant-baseline="middle"
     transform="rotate(0, 418, 60)"
     id="text911" />
  <line
     x1="190"
     y1="60"
     x2="407"
     y2="60"
     style="stroke:rgb(0, 0, 0);stroke-linecap:square;stroke-width:2"
     id="line913" />
  <ellipse
     cx="410"
     cy="60"
     rx="3"
     ry="3"
     style="fill-opacity:1;fill:#000000;stroke:#000000;stroke-width:2;stroke-opacity:1"
     id="ellipse915" />
  <line
     x1="150"
     y1="250"
     x2="220"
     y2="250"
     style="stroke:rgb(0, 0, 0);stroke-linecap:square;stroke-width:2"
     id="line917" />
  <line
     x1="220"
     y1="100"
     x2="220"
     y2="250"
     style="stroke:rgb(0, 0, 0);stroke-linecap:square;stroke-width:2"
     id="line919" />
  <line
     x1="190"
     y1="100"
     x2="220"
     y2="100"
     style="stroke:rgb(0, 0, 0);stroke-linecap:square;stroke-width:2"
     id="line921" />
  <line
     x1="30"
     y1="250"
     x2="90"
     y2="250"
     style="stroke:rgb(0, 0, 0);stroke-linecap:square;stroke-width:2"
     id="line923" />
  <line
     x1="30"
     y1="120"
     x2="30"
     y2="250"
     style="stroke:rgb(0, 0, 0);stroke-linecap:square;stroke-width:2"
     id="line925" />
  <line
     x1="30"
     y1="120"
     x2="60"
     y2="120"
     style="stroke:rgb(0, 0, 0);stroke-linecap:square;stroke-width:2"
     id="line927" />
  <line
     x1="90"
     y1="250"
     x2="100"
     y2="250"
     style="stroke:rgb(0, 0, 0);stroke-linecap:square;stroke-width:2"
     id="line929" />
  <line
     x1="140"
     y1="250"
     x2="150"
     y2="250"
     style="stroke:rgb(0, 0, 0);stroke-linecap:square;stroke-width:2"
     id="line931" />
  <line
     x1="100"
     y1="250"
     x2="106"
     y2="250"
     style="stroke:rgb(0, 0, 0);stroke-linecap:square;stroke-width:2"
     id="line933" />
  <line
     x1="106"
     y1="250"
     x2="106"
     y2="256"
     style="stroke:rgb(0, 0, 0);stroke-linecap:square;stroke-width:2"
     id="line935" />
  <line
     x1="134"
     y1="250"
     x2="140"
     y2="250"
     style="stroke:rgb(0, 0, 0);stroke-linecap:square;stroke-width:2"
     id="line937" />
  <line
     x1="134"
     y1="250"
     x2="134"
     y2="256"
     style="stroke:rgb(0, 0, 0);stroke-linecap:square;stroke-width:2"
     id="line939" />
  <path
     d="M 120,250 A 20,20 90 0 0 100,270 L 140,270 A 20,20 90 0 0 120,250"
     style="fill-opacity:0;fill:rgb(0, 0, 0);stroke:rgb(0, 0, 0);stroke-linecap:square;stroke-width:2"
     id="path941" />
  <rect
     x="65"
     y="25"
     width="120"
     height="195"
     style="fill-opacity:0;fill:rgb(0, 0, 0);stroke:rgb(0, 0, 0);stroke-width:2"
     id="rect943" />
  <text
     x="101"
     y="55"
     style="font-family:Arial;font-size:11px;text-anchor:start"
     dominant-baseline="middle"
     transform="rotate(0, 101, 55)"
     id="text945">ARDUINO</text>
  <text
     x="108"
     y="65"
     style="font-family:Arial;font-size:11px;text-anchor:start"
     dominant-baseline="middle"
     transform="rotate(0, 108, 65)"
     id="text947">UNO r3</text>
  <line
     x1="60"
     y1="80"
     x2="65"
     y2="80"
     style="stroke:rgb(0, 0, 0);stroke-linecap:square;stroke-width:2"
     id="line949" />
  <line
     x1="60"
     y1="90"
     x2="65"
     y2="90"
     style="stroke:rgb(0, 0, 0);stroke-linecap:square;stroke-width:2"
     id="line951" />
  <line
     x1="60"
     y1="100"
     x2="65"
     y2="100"
     style="stroke:rgb(0, 0, 0);stroke-linecap:square;stroke-width:2"
     id="line953" />
  <line
     x1="60"
     y1="110"
     x2="65"
     y2="110"
     style="stroke:rgb(0, 0, 0);stroke-linecap:square;stroke-width:2"
     id="line955" />
  <line
     x1="60"
     y1="120"
     x2="65"
     y2="120"
     style="stroke:rgb(0, 0, 0);stroke-linecap:square;stroke-width:2"
     id="line957" />
  <line
     x1="60"
     y1="130"
     x2="65"
     y2="130"
     style="stroke:rgb(0, 0, 0);stroke-linecap:square;stroke-width:2"
     id="line959" />
  <line
     x1="60"
     y1="140"
     x2="65"
     y2="140"
     style="stroke:rgb(0, 0, 0);stroke-linecap:square;stroke-width:2"
     id="line961" />
  <line
     x1="60"
     y1="160"
     x2="65"
     y2="160"
     style="stroke:rgb(0, 0, 0);stroke-linecap:square;stroke-width:2"
     id="line963" />
  <line
     x1="60"
     y1="170"
     x2="65"
     y2="170"
     style="stroke:rgb(0, 0, 0);stroke-linecap:square;stroke-width:2"
     id="line965" />
  <line
     x1="60"
     y1="180"
     x2="65"
     y2="180"
     style="stroke:rgb(0, 0, 0);stroke-linecap:square;stroke-width:2"
     id="line967" />
  <line
     x1="60"
     y1="190"
     x2="65"
     y2="190"
     style="stroke:rgb(0, 0, 0);stroke-linecap:square;stroke-width:2"
     id="line969" />
  <line
     x1="60"
     y1="200"
     x2="65"
     y2="200"
     style="stroke:rgb(0, 0, 0);stroke-linecap:square;stroke-width:2"
     id="line971" />
  <line
     x1="60"
     y1="210"
     x2="65"
     y2="210"
     style="stroke:rgb(0, 0, 0);stroke-linecap:square;stroke-width:2"
     id="line973" />
  <line
     x1="185"
     y1="50"
     x2="190"
     y2="50"
     style="stroke:rgb(0, 0, 0);stroke-linecap:square;stroke-width:2"
     id="line975" />
  <line
     x1="185"
     y1="60"
     x2="190"
     y2="60"
     style="stroke:rgb(0, 0, 0);stroke-linecap:square;stroke-width:2"
     id="line977" />
  <line
     x1="185"
     y1="70"
     x2="190"
     y2="70"
     style="stroke:rgb(0, 0, 0);stroke-linecap:square;stroke-width:2"
     id="line979" />
  <line
     x1="185"
     y1="80"
     x2="190"
     y2="80"
     style="stroke:rgb(0, 0, 0);stroke-linecap:square;stroke-width:2"
     id="line981" />
  <line
     x1="185"
     y1="90"
     x2="190"
     y2="90"
     style="stroke:rgb(0, 0, 0);stroke-linecap:square;stroke-width:2"
     id="line983" />
  <line
     x1="185"
     y1="100"
     x2="190"
     y2="100"
     style="stroke:rgb(0, 0, 0);stroke-linecap:square;stroke-width:2"
     id="line985" />
  <line
     x1="185"
     y1="110"
     x2="190"
     y2="110"
     style="stroke:rgb(0, 0, 0);stroke-linecap:square;stroke-width:2"
     id="line987" />
  <line
     x1="185"
     y1="120"
     x2="190"
     y2="120"
     style="stroke:rgb(0, 0, 0);stroke-linecap:square;stroke-width:2"
     id="line989" />
  <line
     x1="185"
     y1="140"
     x2="190"
     y2="140"
     style="stroke:rgb(0, 0, 0);stroke-linecap:square;stroke-width:2"
     id="line991" />
  <line
     x1="185"
     y1="150"
     x2="190"
     y2="150"
     style="stroke:rgb(0, 0, 0);stroke-linecap:square;stroke-width:2"
     id="line993" />
  <line
     x1="185"
     y1="160"
     x2="190"
     y2="160"
     style="stroke:rgb(0, 0, 0);stroke-linecap:square;stroke-width:2"
     id="line995" />
  <line
     x1="185"
     y1="170"
     x2="190"
     y2="170"
     style="stroke:rgb(0, 0, 0);stroke-linecap:square;stroke-width:2"
     id="line997" />
  <line
     x1="185"
     y1="180"
     x2="190"
     y2="180"
     style="stroke:rgb(0, 0, 0);stroke-linecap:square;stroke-width:2"
     id="line999" />
  <line
     x1="185"
     y1="190"
     x2="190"
     y2="190"
     style="stroke:rgb(0, 0, 0);stroke-linecap:square;stroke-width:2"
     id="line1001" />
  <line
     x1="185"
     y1="200"
     x2="190"
     y2="200"
     style="stroke:rgb(0, 0, 0);stroke-linecap:square;stroke-width:2"
     id="line1003" />
  <line
     x1="185"
     y1="210"
     x2="190"
     y2="210"
     style="stroke:rgb(0, 0, 0);stroke-linecap:square;stroke-width:2"
     id="line1005" />
  <text
     x="69"
     y="80"
     style="font-family:Arial;font-size:11px;text-anchor:start"
     dominant-baseline="middle"
     transform="rotate(0, 69, 80)"
     id="text1007">IOREF</text>
  <text
     x="69"
     y="90"
     style="font-family:Arial;font-size:11px;text-anchor:start"
     dominant-baseline="middle"
     transform="rotate(0, 69, 90)"
     id="text1009">RESET</text>
  <text
     x="69"
     y="100"
     style="font-family:Arial;font-size:11px;text-anchor:start"
     dominant-baseline="middle"
     transform="rotate(0, 69, 100)"
     id="text1011">3.3V</text>
  <text
     x="69"
     y="110"
     style="font-family:Arial;font-size:11px;text-anchor:start"
     dominant-baseline="middle"
     transform="rotate(0, 69, 110)"
     id="text1013">5V</text>
  <text
     x="69"
     y="120"
     style="font-family:Arial;font-size:11px;text-anchor:start"
     dominant-baseline="middle"
     transform="rotate(0, 69, 120)"
     id="text1015">GND</text>
  <text
     x="69"
     y="130"
     style="font-family:Arial;font-size:11px;text-anchor:start"
     dominant-baseline="middle"
     transform="rotate(0, 69, 130)"
     id="text1017">GND</text>
  <text
     x="69"
     y="140"
     style="font-family:Arial;font-size:11px;text-anchor:start"
     dominant-baseline="middle"
     transform="rotate(0, 69, 140)"
     id="text1019">Vin</text>
  <text
     x="69"
     y="160"
     style="font-family:Arial;font-size:11px;text-anchor:start"
     dominant-baseline="middle"
     transform="rotate(0, 69, 160)"
     id="text1021">A0</text>
  <text
     x="69"
     y="170"
     style="font-family:Arial;font-size:11px;text-anchor:start"
     dominant-baseline="middle"
     transform="rotate(0, 69, 170)"
     id="text1023">A1</text>
  <text
     x="69"
     y="180"
     style="font-family:Arial;font-size:11px;text-anchor:start"
     dominant-baseline="middle"
     transform="rotate(0, 69, 180)"
     id="text1025">A2</text>
  <text
     x="69"
     y="190"
     style="font-family:Arial;font-size:11px;text-anchor:start"
     dominant-baseline="middle"
     transform="rotate(0, 69, 190)"
     id="text1027">A3</text>
  <text
     x="69"
     y="200"
     style="font-family:Arial;font-size:11px;text-anchor:start"
     dominant-baseline="middle"
     transform="rotate(0, 69, 200)"
     id="text1029">A4</text>
  <text
     x="69"
     y="210"
     style="font-family:Arial;font-size:11px;text-anchor:start"
     dominant-baseline="middle"
     transform="rotate(0, 69, 210)"
     id="text1031">A5</text>
  <text
     x="181"
     y="50"
     style="font-family:Arial;font-size:11px;text-anchor:end"
     dominant-baseline="middle"
     transform="rotate(0, 181, 50)"
     id="text1033">AREF</text>
  <text
     x="181"
     y="60"
     style="font-family:Arial;font-size:11px;text-anchor:end"
     dominant-baseline="middle"
     transform="rotate(0, 181, 60)"
     id="text1035">GND</text>
  <text
     x="181"
     y="70"
     style="font-family:Arial;font-size:11px;text-anchor:end"
     dominant-baseline="middle"
     transform="rotate(0, 181, 70)"
     id="text1037">D13</text>
  <text
     x="181"
     y="80"
     style="font-family:Arial;font-size:11px;text-anchor:end"
     dominant-baseline="middle"
     transform="rotate(0, 181, 80)"
     id="text1039">D12</text>
  <text
     x="181"
     y="90"
     style="font-family:Arial;font-size:11px;text-anchor:end"
     dominant-baseline="middle"
     transform="rotate(0, 181, 90)"
     id="text1041">PWM D11</text>
  <text
     x="181"
     y="100"
     style="font-family:Arial;font-size:11px;text-anchor:end"
     dominant-baseline="middle"
     transform="rotate(0, 181, 100)"
     id="text1043">PWM D10</text>
  <text
     x="181"
     y="110"
     style="font-family:Arial;font-size:11px;text-anchor:end"
     dominant-baseline="middle"
     transform="rotate(0, 181, 110)"
     id="text1045">PWM   D9</text>
  <text
     x="181"
     y="120"
     style="font-family:Arial;font-size:11px;text-anchor:end"
     dominant-baseline="middle"
     transform="rotate(0, 181, 120)"
     id="text1047">D8</text>
  <text
     x="181"
     y="140"
     style="font-family:Arial;font-size:11px;text-anchor:end"
     dominant-baseline="middle"
     transform="rotate(0, 181, 140)"
     id="text1049">D7</text>
  <text
     x="181"
     y="150"
     style="font-family:Arial;font-size:11px;text-anchor:end"
     dominant-baseline="middle"
     transform="rotate(0, 181, 150)"
     id="text1051">PWM   D6</text>
  <text
     x="181"
     y="160"
     style="font-family:Arial;font-size:11px;text-anchor:end"
     dominant-baseline="middle"
     transform="rotate(0, 181, 160)"
     id="text1053">PWM   D5</text>
  <text
     x="181"
     y="170"
     style="font-family:Arial;font-size:11px;text-anchor:end"
     dominant-baseline="middle"
     transform="rotate(0, 181, 170)"
     id="text1055">D4</text>
  <text
     x="181"
     y="180"
     style="font-family:Arial;font-size:11px;text-anchor:end"
     dominant-baseline="middle"
     transform="rotate(0, 181, 180)"
     id="text1057">PWM   D3</text>
  <text
     x="181"
     y="190"
     style="font-family:Arial;font-size:11px;text-anchor:end"
     dominant-baseline="middle"
     transform="rotate(0, 181, 190)"
     id="text1059">D2</text>
  <text
     x="181"
     y="200"
     style="font-family:Arial;font-size:11px;text-anchor:end"
     dominant-baseline="middle"
     transform="rotate(0, 181, 200)"
     id="text1061">TX   D1</text>
  <text
     x="181"
     y="210"
     style="font-family:Arial;font-size:11px;text-anchor:end"
     dominant-baseline="middle"
     transform="rotate(0, 181, 210)"
     id="text1063">RX   D0</text>
  <path
     d="M 125,40 M 125,40 c 2,9 15,9 15,0 c 0,-9 -13,-9 -15,0"
     style="fill-opacity:0;fill:rgb(0, 0, 0);stroke:rgb(0, 0, 0);stroke-linecap:square;stroke-width:2"
     id="path1065" />
  <path
     d="M 125,40 M 125,40 c -2,-9 -15,-9 -15,0 c 0,9 13,9 15,0"
     style="fill-opacity:0;fill:rgb(0, 0, 0);stroke:rgb(0, 0, 0);stroke-linecap:square;stroke-width:2"
     id="path1067" />
  <line
     x1="131"
     y1="40"
     x2="135"
     y2="40"
     style="stroke:rgb(0, 0, 0);stroke-linecap:square;stroke-width:2"
     id="line1069" />
  <line
     x1="133"
     y1="42"
     x2="133"
     y2="38"
     style="stroke:rgb(0, 0, 0);stroke-linecap:square;stroke-width:2"
     id="line1071" />
  <line
     x1="119"
     y1="40"
     x2="115"
     y2="40"
     style="stroke:rgb(0, 0, 0);stroke-linecap:square;stroke-width:2"
     id="line1073" />
  <ellipse
     cx="490"
     cy="190"
     rx="2"
     ry="2"
     style="fill-opacity:1;fill:rgb(0, 0, 0);stroke:rgb(0, 0, 0);stroke-width:2"
     id="ellipse1075" />
  <ellipse
     cx="440"
     cy="180"
     rx="2"
     ry="2"
     style="fill-opacity:1;fill:rgb(0, 0, 0);stroke:rgb(0, 0, 0);stroke-width:2"
     id="ellipse1077" />
  <ellipse
     cx="430"
     cy="170"
     rx="2"
     ry="2"
     style="fill-opacity:1;fill:rgb(0, 0, 0);stroke:rgb(0, 0, 0);stroke-width:2"
     id="ellipse1079" />
  <ellipse
     cx="360"
     cy="180"
     rx="2"
     ry="2"
     style="fill-opacity:1;fill:rgb(0, 0, 0);stroke:rgb(0, 0, 0);stroke-width:2"
     id="ellipse1081" />
  <ellipse
     cx="290"
     cy="170"
     rx="2"
     ry="2"
     style="fill-opacity:1;fill:rgb(0, 0, 0);stroke:rgb(0, 0, 0);stroke-width:2"
     id="ellipse1083" />
  <ellipse
     cx="330"
     cy="190"
     rx="2"
     ry="2"
     style="fill-opacity:1;fill:rgb(0, 0, 0);stroke:rgb(0, 0, 0);stroke-width:2"
     id="ellipse1085" />
  <ellipse
     cx="320"
     cy="170"
     rx="2"
     ry="2"
     style="fill-opacity:1;fill:rgb(0, 0, 0);stroke:rgb(0, 0, 0);stroke-width:2"
     id="ellipse1087" />
  <ellipse
     cx="400"
     cy="190"
     rx="2"
     ry="2"
     style="fill-opacity:1;fill:rgb(0, 0, 0);stroke:rgb(0, 0, 0);stroke-width:2"
     id="ellipse1089" />
  <ellipse
     cx="390"
     cy="180"
     rx="2"
     ry="2"
     style="fill-opacity:1;fill:rgb(0, 0, 0);stroke:rgb(0, 0, 0);stroke-width:2"
     id="ellipse1091" />
</svg>
