<svg version="1.1" viewBox="0.0 0.0 847.0 524.0" fill="none" stroke="none" stroke-linecap="square" stroke-miterlimit="10" width="847" height="524" xmlns:xlink="http://www.w3.org/1999/xlink" xmlns="http://www.w3.org/2000/svg"><path fill="#ffffff" d="M0 0L847.0 0L847.0 524.0L0 524.0L0 0Z" fill-rule="nonzero"/><path stroke="#cccccc" stroke-width="1.0" stroke-linecap="butt" d="M92.5 33.5L92.5 445.5" fill-rule="nonzero"/><path stroke="#cccccc" stroke-width="1.0" stroke-linecap="butt" d="M236.5 33.5L236.5 445.5" fill-rule="nonzero"/><path stroke="#cccccc" stroke-width="1.0" stroke-linecap="butt" d="M380.5 33.5L380.5 445.5" fill-rule="nonzero"/><path stroke="#cccccc" stroke-width="1.0" stroke-linecap="butt" d="M525.5 33.5L525.5 445.5" fill-rule="nonzero"/><path stroke="#cccccc" stroke-width="1.0" stroke-linecap="butt" d="M669.5 33.5L669.5 445.5" fill-rule="nonzero"/><path stroke="#cccccc" stroke-width="1.0" stroke-linecap="butt" d="M813.5 33.5L813.5 445.5" fill-rule="nonzero"/><path stroke="#333333" stroke-width="1.0" stroke-linecap="butt" d="M85.5 445.5L820.5 445.5" fill-rule="nonzero"/><path stroke="#cccccc" stroke-width="1.0" stroke-linecap="butt" d="M85.5 363.5L820.5 363.5" fill-rule="nonzero"/><path stroke="#cccccc" stroke-width="1.0" stroke-linecap="butt" d="M85.5 280.5L820.5 280.5" fill-rule="nonzero"/><path stroke="#cccccc" stroke-width="1.0" stroke-linecap="butt" d="M85.5 198.5L820.5 198.5" fill-rule="nonzero"/><path stroke="#cccccc" stroke-width="1.0" stroke-linecap="butt" d="M85.5 115.5L820.5 115.5" fill-rule="nonzero"/><path stroke="#cccccc" stroke-width="1.0" stroke-linecap="butt" d="M85.5 33.5L820.5 33.5" fill-rule="nonzero"/><clipPath id="id_0"><path d="M85.2 33.2L820.8 33.2L820.8 445.8L85.2 445.8L85.2 33.2Z" clip-rule="nonzero"/></clipPath><path fill="#4285f4" clip-path="url(#id_0)" d="M818.4307 401.2392C818.4307 403.7245 816.416 405.7392 813.9307 405.7392C811.44543 405.7392 809.4307 403.7245 809.4307 401.2392C809.4307 398.7539 811.44543 396.7392 813.9307 396.7392C816.416 396.7392 818.4307 398.7539 818.4307 401.2392Z" fill-rule="nonzero"/><path fill="#4285f4" clip-path="url(#id_0)" d="M746.24457 393.8124C746.24457 396.29767 744.22986 398.3124 741.74457 398.3124C739.2593 398.3124 737.24457 396.29767 737.24457 393.8124C737.24457 391.32712 739.2593 389.3124 741.74457 389.3124C744.22986 389.3124 746.24457 391.32712 746.24457 393.8124Z" fill-rule="nonzero"/><path fill="#4285f4" clip-path="url(#id_0)" d="M674.0585 392.162C674.0585 394.64728 672.0437 396.662 669.5585 396.662C667.0732 396.662 665.0585 394.64728 665.0585 392.162C665.0585 389.67673 667.0732 387.662 669.5585 387.662C672.0437 387.662 674.0585 389.67673 674.0585 392.162Z" fill-rule="nonzero"/><path fill="#4285f4" clip-path="url(#id_0)" d="M601.8723 388.036C601.8723 390.52127 599.8576 392.536 597.3723 392.536C594.887 392.536 592.8723 390.52127 592.8723 388.036C592.8723 385.55072 594.887 383.536 597.3723 383.536C599.8576 383.536 601.8723 385.55072 601.8723 388.036Z" fill-rule="nonzero"/><path fill="#4285f4" clip-path="url(#id_0)" d="M529.68616 327.7964C529.68616 330.28168 527.67145 332.2964 525.18616 332.2964C522.70087 332.2964 520.68616 330.28168 520.68616 327.7964C520.68616 325.31113 522.70087 323.2964 525.18616 323.2964C527.67145 323.2964 529.68616 325.31113 529.68616 327.7964Z" fill-rule="nonzero"/><path fill="#4285f4" clip-path="url(#id_0)" d="M457.5 296.4388C457.5 298.92407 455.4853 300.9388 453.0 300.9388C450.5147 300.9388 448.5 298.92407 448.5 296.4388C448.5 293.95352 450.5147 291.9388 453.0 291.9388C455.4853 291.9388 457.5 293.95352 457.5 296.4388Z" fill-rule="nonzero"/><path fill="#4285f4" clip-path="url(#id_0)" d="M385.31384 236.1992C385.31384 238.68448 383.29913 240.6992 380.81384 240.6992C378.32858 240.6992 376.31384 238.68448 376.31384 236.1992C376.31384 233.71391 378.32858 231.6992 380.81384 231.6992C383.29913 231.6992 385.31384 233.71391 385.31384 236.1992Z" fill-rule="nonzero"/><path fill="#4285f4" clip-path="url(#id_0)" d="M313.12772 138.8256C313.12772 141.31088 311.11298 143.3256 308.62772 143.3256C306.14243 143.3256 304.12772 141.31088 304.12772 138.8256C304.12772 136.34032 306.14243 134.3256 308.62772 134.3256C311.11298 134.3256 313.12772 136.34032 313.12772 138.8256Z" fill-rule="nonzero"/><path fill="#4285f4" clip-path="url(#id_0)" d="M240.94156 57.956C240.94156 60.44128 238.92683 62.456 236.44156 62.456C233.95628 62.456 231.94156 60.44128 231.94156 57.956C231.94156 55.47072 233.95628 53.456 236.44156 53.456C238.92683 53.456 240.94156 55.47072 240.94156 57.956Z" fill-rule="nonzero"/><path fill="#4285f4" clip-path="url(#id_0)" d="M168.75542 43.1024C168.75542 45.58768 166.74069 47.6024 164.25542 47.6024C161.77013 47.6024 159.75542 45.58768 159.75542 43.1024C159.75542 40.61712 161.77013 38.6024 164.25542 38.6024C166.74069 38.6024 168.75542 40.61712 168.75542 43.1024Z" fill-rule="nonzero"/><path fill="#4285f4" clip-path="url(#id_0)" d="M96.56927 38.9764C96.56927 41.46168 94.55454 43.4764 92.06927 43.4764C89.583984 43.4764 87.56927 41.46168 87.56927 38.9764C87.56927 36.49112 89.583984 34.4764 92.06927 34.4764C94.55454 34.4764 96.56927 36.49112 96.56927 38.9764Z" fill-rule="nonzero"/><path fill="#ea4335" clip-path="url(#id_0)" d="M818.4307 385.5604C818.4307 388.0457 816.416 390.0604 813.9307 390.0604C811.44543 390.0604 809.4307 388.0457 809.4307 385.5604C809.4307 383.0751 811.44543 381.0604 813.9307 381.0604C816.416 381.0604 818.4307 383.0751 818.4307 385.5604Z" fill-rule="nonzero"/><path fill="#ea4335" clip-path="url(#id_0)" d="M746.24457 378.9588C746.24457 381.4441 744.22986 383.4588 741.74457 383.4588C739.2593 383.4588 737.24457 381.4441 737.24457 378.9588C737.24457 376.4735 739.2593 374.4588 741.74457 374.4588C744.22986 374.4588 746.24457 376.4735 746.24457 378.9588Z" fill-rule="nonzero"/><path fill="#ea4335" clip-path="url(#id_0)" d="M674.0585 359.9792C674.0585 362.46448 672.0437 364.4792 669.5585 364.4792C667.0732 364.4792 665.0585 362.46448 665.0585 359.9792C665.0585 357.49393 667.0732 355.4792 669.5585 355.4792C672.0437 355.4792 674.0585 357.49393 674.0585 359.9792Z" fill-rule="nonzero"/><path fill="#ea4335" clip-path="url(#id_0)" d="M601.8723 344.3004C601.8723 346.78568 599.8576 348.8004 597.3723 348.8004C594.887 348.8004 592.8723 346.78568 592.8723 344.3004C592.8723 341.81512 594.887 339.8004 597.3723 339.8004C599.8576 339.8004 601.8723 341.81512 601.8723 344.3004Z" fill-rule="nonzero"/><path fill="#ea4335" clip-path="url(#id_0)" d="M529.68616 318.7192C529.68616 321.20447 527.67145 323.2192 525.18616 323.2192C522.70087 323.2192 520.68616 321.20447 520.68616 318.7192C520.68616 316.23392 522.70087 314.2192 525.18616 314.2192C527.67145 314.2192 529.68616 316.23392 529.68616 318.7192Z" fill-rule="nonzero"/><path fill="#ea4335" clip-path="url(#id_0)" d="M457.5 278.2844C457.5 280.76968 455.4853 282.7844 453.0 282.7844C450.5147 282.7844 448.5 280.76968 448.5 278.2844C448.5 275.79913 450.5147 273.7844 453.0 273.7844C455.4853 273.7844 457.5 275.79913 457.5 278.2844Z" fill-rule="nonzero"/><path fill="#ea4335" clip-path="url(#id_0)" d="M385.31384 221.3456C385.31384 223.83089 383.29913 225.8456 380.81384 225.8456C378.32858 225.8456 376.31384 223.83089 376.31384 221.3456C376.31384 218.86032 378.32858 216.8456 380.81384 216.8456C383.29913 216.8456 385.31384 218.86032 385.31384 221.3456Z" fill-rule="nonzero"/><path fill="#ea4335" clip-path="url(#id_0)" d="M313.12772 141.3012C313.12772 143.78648 311.11298 145.8012 308.62772 145.8012C306.14243 145.8012 304.12772 143.78648 304.12772 141.3012C304.12772 138.81592 306.14243 136.8012 308.62772 136.8012C311.11298 136.8012 313.12772 138.81592 313.12772 141.3012Z" fill-rule="nonzero"/><path fill="#ea4335" clip-path="url(#id_0)" d="M240.94156 45.578C240.94156 48.063282 238.92683 50.078 236.44156 50.078C233.95628 50.078 231.94156 48.063282 231.94156 45.578C231.94156 43.09272 233.95628 41.078 236.44156 41.078C238.92683 41.078 240.94156 43.09272 240.94156 45.578Z" fill-rule="nonzero"/><path fill="#ea4335" clip-path="url(#id_0)" d="M168.75542 42.2772C168.75542 44.76248 166.74069 46.7772 164.25542 46.7772C161.77013 46.7772 159.75542 44.76248 159.75542 42.2772C159.75542 39.79192 161.77013 37.7772 164.25542 37.7772C166.74069 37.7772 168.75542 39.79192 168.75542 42.2772Z" fill-rule="nonzero"/><path fill="#ea4335" clip-path="url(#id_0)" d="M96.56927 40.6268C96.56927 43.11208 94.55454 45.1268 92.06927 45.1268C89.583984 45.1268 87.56927 43.11208 87.56927 40.6268C87.56927 38.141518 89.583984 36.1268 92.06927 36.1268C94.55454 36.1268 96.56927 38.141518 96.56927 40.6268Z" fill-rule="nonzero"/><path fill="#000000" d="M414.9375 494.8L414.9375 486.20624L418.75 486.20624Q419.90625 486.20624 420.5 486.4406Q421.09375 486.675 421.45312 487.26874Q421.8125 487.84686 421.8125 488.55Q421.8125 489.47186 421.21875 490.09686Q420.625 490.72186 419.39062 490.89374Q419.84375 491.1125 420.07812 491.3156Q420.57812 491.76874 421.01562 492.45624L422.51562 494.8L421.07812 494.8L419.95312 493.01874Q419.45312 492.2375 419.125 491.83124Q418.8125 491.425 418.54688 491.26874Q418.29688 491.09686 418.03125 491.01874Q417.84375 490.9875 417.40625 490.9875L416.07812 490.9875L416.07812 494.8L414.9375 494.8ZM416.07812 490.0031L418.53125 490.0031Q419.29688 490.0031 419.73438 489.84686Q420.1875 489.675 420.40625 489.33124Q420.64062 488.97186 420.64062 488.55Q420.64062 487.9406 420.1875 487.55Q419.75 487.15936 418.79688 487.15936L416.07812 487.15936L416.07812 490.0031ZM427.875 494.8L427.875 493.8781Q427.14062 494.9406 425.89062 494.9406Q425.34375 494.9406 424.85938 494.7375Q424.39062 494.51874 424.15625 494.20624Q423.92188 493.8781 423.82812 493.40936Q423.76562 493.1125 423.76562 492.425L423.76562 488.58124L424.82812 488.58124L424.82812 492.03436Q424.82812 492.84686 424.89062 493.14374Q424.98438 493.55 425.29688 493.8Q425.625 494.03436 426.10938 494.03436Q426.57812 494.03436 426.98438 493.8Q427.40625 493.55 427.57812 493.1281Q427.76562 492.70624 427.76562 491.90936L427.76562 488.58124L428.8125 488.58124L428.8125 494.8L427.875 494.8ZM430.76562 494.8L430.76562 486.20624L431.82812 486.20624L431.82812 494.8L430.76562 494.8ZM438.04688 492.8L439.14062 492.925Q438.89062 493.8781 438.1875 494.40936Q437.48438 494.9406 436.40625 494.9406Q435.04688 494.9406 434.23438 494.09686Q433.4375 493.2531 433.4375 491.7375Q433.4375 490.175 434.25 489.3156Q435.0625 488.4406 436.34375 488.4406Q437.59375 488.4406 438.375 489.28436Q439.17188 490.1281 439.17188 491.675Q439.17188 491.76874 439.17188 491.95624L434.53125 491.95624Q434.59375 492.9875 435.10938 493.53436Q435.625 494.0656 436.40625 494.0656Q436.98438 494.0656 437.39062 493.76874Q437.8125 493.45624 438.04688 492.8ZM434.59375 491.09686L438.0625 491.09686Q438.0 490.3 437.67188 489.90936Q437.15625 489.3 436.35938 489.3Q435.625 489.3 435.125 489.78436Q434.64062 490.26874 434.59375 491.09686ZM440.78125 494.8L440.78125 488.58124L441.73438 488.58124L441.73438 489.51874Q442.09375 488.8625 442.39062 488.65936Q442.70312 488.4406 443.07812 488.4406Q443.60938 488.4406 444.15625 488.76874L443.79688 489.7531Q443.40625 489.51874 443.03125 489.51874Q442.67188 489.51874 442.39062 489.7375Q442.125 489.9406 442.01562 490.3156Q441.82812 490.8781 441.82812 491.53436L441.82812 494.8L440.78125 494.8ZM449.8125 497.33124Q448.9375 496.22186 448.32812 494.7531Q447.73438 493.26874 447.73438 491.6906Q447.73438 490.3 448.17188 489.01874Q448.70312 487.53436 449.8125 486.0656L450.5625 486.0656Q449.85938 487.28436 449.625 487.8Q449.26562 488.6125 449.0625 489.4875Q448.8125 490.58124 448.8125 491.6906Q448.8125 494.51874 450.5625 497.33124L449.8125 497.33124ZM451.79688 487.425L451.79688 486.20624L452.85938 486.20624L452.85938 487.425L451.79688 487.425ZM451.79688 494.8L451.79688 488.58124L452.85938 488.58124L452.85938 494.8L451.79688 494.8ZM454.79688 494.8L454.79688 488.58124L455.73438 488.58124L455.73438 489.45624Q456.42188 488.4406 457.71875 488.4406Q458.28125 488.4406 458.75 488.64374Q459.23438 488.84686 459.46875 489.175Q459.70312 489.5031 459.79688 489.9406Q459.84375 490.2375 459.84375 490.97186L459.84375 494.8L458.79688 494.8L458.79688 491.01874Q458.79688 490.3625 458.67188 490.05Q458.54688 489.7375 458.23438 489.55Q457.92188 489.34686 457.5 489.34686Q456.82812 489.34686 456.32812 489.78436Q455.84375 490.20624 455.84375 491.39374L455.84375 494.8L454.79688 494.8ZM465.85938 492.51874L466.89062 492.65936Q466.71875 493.72186 466.01562 494.33124Q465.3125 494.9406 464.29688 494.9406Q463.01562 494.9406 462.23438 494.1125Q461.46875 493.26874 461.46875 491.70624Q461.46875 490.70624 461.79688 489.95624Q462.14062 489.1906 462.8125 488.8156Q463.5 488.4406 464.3125 488.4406Q465.3125 488.4406 465.95312 488.95624Q466.60938 489.45624 466.79688 490.40936L465.76562 490.5656Q465.625 489.9406 465.25 489.6281Q464.875 489.3 464.34375 489.3Q463.54688 489.3 463.04688 489.8781Q462.54688 490.4406 462.54688 491.675Q462.54688 492.9406 463.03125 493.5031Q463.51562 494.0656 464.28125 494.0656Q464.90625 494.0656 465.3125 493.6906Q465.73438 493.3156 465.85938 492.51874ZM467.79688 494.8L467.79688 486.20624L468.84375 486.20624L468.84375 489.28436Q469.57812 488.4406 470.70312 488.4406Q471.40625 488.4406 471.90625 488.72186Q472.42188 488.9875 472.64062 489.47186Q472.85938 489.9406 472.85938 490.8625L472.85938 494.8L471.8125 494.8L471.8125 490.8625Q471.8125 490.0656 471.46875 489.70624Q471.125 489.34686 470.5 489.34686Q470.03125 489.34686 469.60938 489.59686Q469.20312 489.83124 469.01562 490.2531Q468.84375 490.65936 468.84375 491.39374L468.84375 494.8L467.79688 494.8ZM479.04688 492.8L480.14062 492.925Q479.89062 493.8781 479.1875 494.40936Q478.48438 494.9406 477.40625 494.9406Q476.04688 494.9406 475.23438 494.09686Q474.4375 493.2531 474.4375 491.7375Q474.4375 490.175 475.25 489.3156Q476.0625 488.4406 477.34375 488.4406Q478.59375 488.4406 479.375 489.28436Q480.17188 490.1281 480.17188 491.675Q480.17188 491.76874 480.17188 491.95624L475.53125 491.95624Q475.59375 492.9875 476.10938 493.53436Q476.625 494.0656 477.40625 494.0656Q477.98438 494.0656 478.39062 493.76874Q478.8125 493.45624 479.04688 492.8ZM475.59375 491.09686L479.0625 491.09686Q479.0 490.3 478.67188 489.90936Q478.15625 489.3 477.35938 489.3Q476.625 489.3 476.125 489.78436Q475.64062 490.26874 475.59375 491.09686ZM481.375 492.9406L482.40625 492.78436Q482.5 493.40936 482.89062 493.7375Q483.29688 494.0656 484.03125 494.0656Q484.75 494.0656 485.09375 493.78436Q485.45312 493.4875 485.45312 493.08124Q485.45312 492.72186 485.14062 492.51874Q484.92188 492.3781 484.0625 492.15936Q482.90625 491.8625 482.45312 491.65936Q482.01562 491.4406 481.78125 491.0656Q481.54688 490.6906 481.54688 490.22186Q481.54688 489.8156 481.73438 489.45624Q481.92188 489.09686 482.25 488.8625Q482.5 488.6906 482.92188 488.5656Q483.34375 488.4406 483.84375 488.4406Q484.5625 488.4406 485.10938 488.65936Q485.67188 488.8625 485.9375 489.22186Q486.20312 489.58124 486.29688 490.175L485.26562 490.3156Q485.20312 489.84686 484.85938 489.58124Q484.53125 489.3 483.90625 489.3Q483.1875 489.3 482.875 489.55Q482.5625 489.78436 482.5625 490.1125Q482.5625 490.3156 482.6875 490.47186Q482.82812 490.64374 483.09375 490.7531Q483.25 490.8156 484.03125 491.01874Q485.15625 491.33124 485.59375 491.51874Q486.03125 491.70624 486.28125 492.0656Q486.53125 492.425 486.53125 492.97186Q486.53125 493.5031 486.21875 493.97186Q485.92188 494.425 485.34375 494.6906Q484.76562 494.9406 484.03125 494.9406Q482.8125 494.9406 482.17188 494.4406Q481.54688 493.925 481.375 492.9406ZM489.48438 497.33124L488.73438 497.33124Q490.48438 494.51874 490.48438 491.6906Q490.48438 490.59686 490.23438 489.5031Q490.03125 488.6281 489.67188 487.8156Q489.4375 487.3 488.73438 486.0656L489.48438 486.0656Q490.57812 487.53436 491.10938 489.01874Q491.5625 490.3 491.5625 491.6906Q491.5625 493.26874 490.95312 494.7531Q490.34375 496.22186 489.48438 497.33124Z" fill-rule="nonzero"/><path fill="#000000" d="M37.19999 263.125L28.606237 266.45312L28.606237 265.21875L34.85624 262.98438Q35.60624 262.71875 36.26249 262.53125Q35.559364 262.32812 34.85624 262.0625L28.606237 259.75L28.606237 258.59375L37.19999 261.95312L37.19999 263.125ZM34.090614 259.09375Q32.35624 259.09375 31.528112 258.14062Q30.840612 257.34375 30.840612 256.1875Q30.840612 254.90625 31.684362 254.09375Q32.51249 253.26562 33.996864 253.26562Q35.19999 253.26562 35.88749 253.625Q36.57499 253.98438 36.965614 254.6875Q37.340614 255.375 37.340614 256.1875Q37.340614 257.48438 36.51249 258.29688Q35.66874 259.09375 34.090614 259.09375ZM34.090614 258.01562Q35.278114 258.01562 35.871864 257.5Q36.465614 256.96875 36.465614 256.1875Q36.465614 255.39062 35.871864 254.875Q35.278114 254.35938 34.059364 254.35938Q32.903114 254.35938 32.309364 254.89062Q31.715612 255.40625 31.715612 256.1875Q31.715612 256.96875 32.309364 257.5Q32.88749 258.01562 34.090614 258.01562ZM37.19999 251.73438L28.606237 251.73438L28.606237 250.67188L37.19999 250.67188L37.19999 251.73438ZM36.26249 246.40625L37.184364 246.25Q37.278114 246.70312 37.278114 247.04688Q37.278114 247.625 37.10624 247.9375Q36.91874 248.25 36.621864 248.39062Q36.32499 248.51562 35.371864 248.51562L31.793737 248.51562L31.793737 249.28125L30.981237 249.28125L30.981237 248.51562L29.434362 248.51562L28.809362 247.46875L30.981237 247.46875L30.981237 246.40625L31.793737 246.40625L31.793737 247.46875L35.434364 247.46875Q35.88749 247.46875 36.01249 247.42188Q36.13749 247.35938 36.215614 247.23438Q36.29374 247.10938 36.29374 246.875Q36.29374 246.6875 36.26249 246.40625ZM36.434364 241.64062Q36.934364 242.23438 37.13749 242.78125Q37.340614 243.3125 37.340614 243.9375Q37.340614 244.96875 36.840614 245.51562Q36.340614 246.0625 35.559364 246.0625Q35.10624 246.0625 34.73124 245.85938Q34.340614 245.65625 34.121864 245.3125Q33.88749 244.96875 33.778114 244.54688Q33.684364 244.25 33.60624 243.60938Q33.465614 242.34375 33.246864 241.73438Q33.028114 241.73438 32.98124 241.73438Q32.32499 241.73438 32.059364 242.03125Q31.715612 242.4375 31.715612 243.23438Q31.715612 243.96875 31.981237 244.32812Q32.23124 244.6875 32.88749 244.85938L32.746864 245.89062Q32.090614 245.75 31.684362 245.42188Q31.278112 245.09375 31.059362 244.48438Q30.840612 243.875 30.840612 243.07812Q30.840612 242.28125 31.028112 241.78125Q31.215612 241.28125 31.496862 241.04688Q31.778112 240.8125 32.215614 240.71875Q32.48124 240.67188 33.184364 240.67188L34.590614 240.67188Q36.059364 240.67188 36.44999 240.60938Q36.840614 240.53125 37.19999 240.32812L37.19999 241.4375Q36.871864 241.59375 36.434364 241.64062ZM34.07499 241.73438Q34.309364 242.3125 34.48124 243.45312Q34.57499 244.10938 34.69999 244.375Q34.809364 244.64062 35.028114 244.79688Q35.246864 244.9375 35.528114 244.9375Q35.94999 244.9375 36.23124 244.625Q36.51249 244.29688 36.51249 243.6875Q36.51249 243.07812 36.246864 242.60938Q35.98124 242.125 35.51249 241.90625Q35.153114 241.73438 34.465614 241.73438L34.07499 241.73438ZM37.715614 238.90625L37.871864 237.875Q38.340614 237.8125 38.559364 237.51562Q38.85624 237.125 38.85624 236.45312Q38.85624 235.71875 38.559364 235.32812Q38.26249 234.92188 37.746864 234.78125Q37.41874 234.6875 36.38749 234.70312Q37.19999 235.39062 37.19999 236.42188Q37.19999 237.70312 36.278114 238.40625Q35.340614 239.10938 34.059364 239.10938Q33.16874 239.10938 32.41874 238.79688Q31.653112 238.46875 31.246862 237.85938Q30.840612 237.25 30.840612 236.42188Q30.840612 235.3125 31.731237 234.59375L30.981237 234.59375L30.981237 233.625L36.35624 233.625Q37.809364 233.625 38.41874 233.92188Q39.028114 234.21875 39.371864 234.85938Q39.73124 235.5 39.73124 236.4375Q39.73124 237.54688 39.23124 238.23438Q38.73124 238.92188 37.715614 238.90625ZM33.98124 238.03125Q35.19999 238.03125 35.76249 237.54688Q36.32499 237.0625 36.32499 236.32812Q36.32499 235.59375 35.76249 235.10938Q35.19999 234.60938 34.01249 234.60938Q32.871864 234.60938 32.29374 235.125Q31.715612 235.625 31.715612 236.34375Q31.715612 237.04688 32.29374 237.54688Q32.85624 238.03125 33.98124 238.03125ZM35.19999 227.45312L35.32499 226.35938Q36.278114 226.60938 36.809364 227.3125Q37.340614 228.01562 37.340614 229.09375Q37.340614 230.45312 36.496864 231.26562Q35.653114 232.0625 34.13749 232.0625Q32.57499 232.0625 31.715612 231.25Q30.840612 230.4375 30.840612 229.15625Q30.840612 227.90625 31.684362 227.125Q32.528114 226.32812 34.07499 226.32812Q34.16874 226.32812 34.35624 226.32812L34.35624 230.96875Q35.38749 230.90625 35.934364 230.39062Q36.465614 229.875 36.465614 229.09375Q36.465614 228.51562 36.16874 228.10938Q35.85624 227.6875 35.19999 227.45312ZM33.496864 230.90625L33.496864 227.4375Q32.69999 227.5 32.309364 227.82812Q31.699987 228.34375 31.699987 229.14062Q31.699987 229.875 32.184364 230.375Q32.66874 230.85938 33.496864 230.90625Z" fill-rule="nonzero"/><path fill="#000000" d="M72.7 445.5656Q72.7 444.03436 73.0125 443.1125Q73.325 442.175 73.93437 441.675Q74.55937 441.175 75.49687 441.175Q76.18437 441.175 76.7 441.45624Q77.23125 441.7375 77.575 442.26874Q77.91875 442.78436 78.10625 443.53436Q78.29375 444.28436 78.29375 445.5656Q78.29375 447.08124 77.98125 448.0031Q77.68437 448.925 77.05937 449.4406Q76.45 449.9406 75.49687 449.9406Q74.2625 449.9406 73.54375 449.05Q72.7 447.9875 72.7 445.5656ZM73.77812 445.5656Q73.77812 447.675 74.27812 448.3781Q74.77812 449.08124 75.49687 449.08124Q76.23125 449.08124 76.71562 448.3781Q77.21562 447.675 77.21562 445.5656Q77.21562 443.4406 76.71562 442.7531Q76.23125 442.05 75.48125 442.05Q74.7625 442.05 74.325 442.65936Q73.77812 443.4406 73.77812 445.5656Z" fill-rule="nonzero"/><path fill="#000000" d="M76.66875 367.28L75.62187 367.28L75.62187 360.56125Q75.23125 360.92062 74.60625 361.29562Q73.99687 361.655 73.5125 361.82687L73.5125 360.81125Q74.3875 360.38937 75.04375 359.81125Q75.71562 359.2175 75.99687 358.655L76.66875 358.655L76.66875 367.28Z" fill-rule="nonzero"/><path fill="#000000" d="M78.24687 283.7444L78.24687 284.76L72.55937 284.76Q72.55937 284.385 72.68437 284.02563Q72.90312 283.4475 73.37187 282.885Q73.85625 282.3225 74.7625 281.58813Q76.16875 280.4319 76.65312 279.76Q77.15312 279.08813 77.15312 278.4944Q77.15312 277.8694 76.7 277.4475Q76.24687 277.01 75.52812 277.01Q74.7625 277.01 74.30937 277.46313Q73.85625 277.91626 73.84062 278.72876L72.7625 278.6194Q72.87187 277.40063 73.59062 276.77563Q74.325 276.135 75.55937 276.135Q76.79375 276.135 77.5125 276.8225Q78.23125 277.51 78.23125 278.52563Q78.23125 279.04126 78.0125 279.54126Q77.80937 280.02563 77.30937 280.58813Q76.825 281.135 75.7 282.08813Q74.74687 282.885 74.46562 283.1819Q74.2 283.46313 74.02812 283.7444L78.24687 283.7444Z" fill-rule="nonzero"/><path fill="#000000" d="M72.7 199.97438L73.7625 199.83376Q73.93437 200.72438 74.37187 201.13063Q74.80937 201.52126 75.43437 201.52126Q76.18437 201.52126 76.7 201.00563Q77.21562 200.49 77.21562 199.72438Q77.21562 199.00563 76.73125 198.53688Q76.2625 198.0525 75.52812 198.0525Q75.23125 198.0525 74.77812 198.1775L74.90312 197.24Q75.0125 197.25563 75.075 197.25563Q75.74687 197.25563 76.27812 196.91188Q76.825 196.5525 76.825 195.81813Q76.825 195.24 76.43437 194.865Q76.04375 194.47438 75.41875 194.47438Q74.80937 194.47438 74.3875 194.865Q73.98125 195.25563 73.87187 196.02126L72.80937 195.83376Q72.99687 194.78688 73.68437 194.20876Q74.37187 193.615 75.3875 193.615Q76.09062 193.615 76.68437 193.9275Q77.27812 194.22438 77.59062 194.74Q77.90312 195.25563 77.90312 195.84938Q77.90312 196.39626 77.60625 196.865Q77.30937 197.31813 76.73125 197.58376Q77.48125 197.75563 77.90312 198.31813Q78.325 198.865 78.325 199.70876Q78.325 200.83376 77.49687 201.615Q76.68437 202.39626 75.43437 202.39626Q74.30937 202.39626 73.55937 201.72438Q72.80937 201.03688 72.7 199.97438Z" fill-rule="nonzero"/><path fill="#000000" d="M76.075 119.72L76.075 117.6575L72.35625 117.6575L72.35625 116.68875L76.27812 111.12625L77.1375 111.12625L77.1375 116.68875L78.29375 116.68875L78.29375 117.6575L77.1375 117.6575L77.1375 119.72L76.075 119.72ZM76.075 116.68875L76.075 112.82938L73.3875 116.68875L76.075 116.68875Z" fill-rule="nonzero"/><path fill="#000000" d="M72.7 34.95L73.80937 34.85625Q73.93437 35.66875 74.37187 36.075Q74.825 36.48125 75.46562 36.48125Q76.21562 36.48125 76.74687 35.903126Q77.27812 35.325 77.27812 34.3875Q77.27812 33.48125 76.7625 32.965626Q76.2625 32.434376 75.43437 32.434376Q74.93437 32.434376 74.5125 32.66875Q74.10625 32.903126 73.87187 33.2625L72.8875 33.1375L73.71562 28.73125L77.99687 28.73125L77.99687 29.73125L74.55937 29.73125L74.10625 32.04375Q74.87187 31.496876 75.71562 31.496876Q76.84062 31.496876 77.60625 32.278126Q78.3875 33.059376 78.3875 34.29375Q78.3875 35.45 77.71562 36.309376Q76.8875 37.340626 75.46562 37.340626Q74.29375 37.340626 73.54375 36.684376Q72.80937 36.028126 72.7 34.95Z" fill-rule="nonzero"/><path fill="#000000" d="M94.61614 461.78436L94.61614 462.8L88.92864 462.8Q88.92864 462.425 89.05364 462.0656Q89.27239 461.4875 89.74114 460.925Q90.22552 460.3625 91.13177 459.6281Q92.53802 458.47186 93.02239 457.8Q93.52239 457.1281 93.52239 456.53436Q93.52239 455.90936 93.06927 455.4875Q92.61614 455.05 91.89739 455.05Q91.13177 455.05 90.67864 455.5031Q90.22552 455.95624 90.20989 456.76874L89.13177 456.65936Q89.24114 455.4406 89.95989 454.8156Q90.69427 454.175 91.92864 454.175Q93.16302 454.175 93.88177 454.8625Q94.60052 455.55 94.60052 456.5656Q94.60052 457.08124 94.38177 457.58124Q94.17864 458.0656 93.67864 458.6281Q93.19427 459.175 92.06927 460.1281Q91.11614 460.925 90.83489 461.22186Q90.56927 461.5031 90.39739 461.78436L94.61614 461.78436Z" fill-rule="nonzero"/><path fill="#000000" d="M236.81656 462.8L236.81656 460.7375L233.09781 460.7375L233.09781 459.76874L237.01968 454.20624L237.87906 454.20624L237.87906 459.76874L239.03531 459.76874L239.03531 460.7375L237.87906 460.7375L237.87906 462.8L236.81656 462.8ZM236.81656 459.76874L236.81656 455.90936L234.12906 459.76874L236.81656 459.76874Z" fill-rule="nonzero"/><path fill="#000000" d="M383.2826 456.3156L382.23572 456.39374Q382.0951 455.76874 381.8451 455.4875Q381.4076 455.03436 380.7826 455.03436Q380.2826 455.03436 379.89197 455.3156Q379.4076 455.6906 379.11072 456.39374Q378.82947 457.08124 378.81384 458.3625Q379.18884 457.78436 379.73572 457.5031Q380.29822 457.22186 380.9076 457.22186Q381.95447 457.22186 382.68884 458.0031Q383.43884 458.78436 383.43884 460.0031Q383.43884 460.8156 383.07947 461.51874Q382.73572 462.20624 382.12634 462.58124Q381.51697 462.9406 380.75134 462.9406Q379.42322 462.9406 378.5951 461.97186Q377.76697 461.0031 377.76697 458.78436Q377.76697 456.28436 378.68884 455.15936Q379.48572 454.175 380.8451 454.175Q381.86072 454.175 382.50134 454.7531Q383.1576 455.3156 383.2826 456.3156ZM378.98572 460.01874Q378.98572 460.5656 379.20447 461.0656Q379.43884 461.55 379.8451 461.8156Q380.26697 462.08124 380.73572 462.08124Q381.39197 462.08124 381.87634 461.55Q382.36072 461.0031 382.36072 460.08124Q382.36072 459.1906 381.87634 458.675Q381.4076 458.15936 380.68884 458.15936Q379.9701 458.15936 379.4701 458.675Q378.98572 459.1906 378.98572 460.01874Z" fill-rule="nonzero"/><path fill="#000000" d="M523.81116 458.14374Q523.1549 457.89374 522.8268 457.45624Q522.5143 457.0031 522.5143 456.39374Q522.5143 455.45624 523.18616 454.8156Q523.87366 454.175 524.98303 454.175Q526.10803 454.175 526.79553 454.83124Q527.48303 455.4875 527.48303 456.425Q527.48303 457.01874 527.17053 457.45624Q526.85803 457.89374 526.2174 458.14374Q527.0143 458.39374 527.42053 458.97186Q527.8268 459.55 527.8268 460.34686Q527.8268 461.4406 527.04553 462.1906Q526.2799 462.9406 524.99866 462.9406Q523.73303 462.9406 522.9518 462.1906Q522.17053 461.4406 522.17053 460.3156Q522.17053 459.47186 522.5924 458.90936Q523.0299 458.34686 523.81116 458.14374ZM523.5924 456.34686Q523.5924 456.95624 523.98303 457.34686Q524.3893 457.7375 525.0143 457.7375Q525.62366 457.7375 526.0143 457.3625Q526.4049 456.97186 526.4049 456.40936Q526.4049 455.83124 525.99866 455.4406Q525.5924 455.03436 524.99866 455.03436Q524.3893 455.03436 523.98303 455.425Q523.5924 455.8156 523.5924 456.34686ZM523.2643 460.3156Q523.2643 460.76874 523.4674 461.1906Q523.68616 461.6125 524.10803 461.84686Q524.5299 462.08124 525.0143 462.08124Q525.7643 462.08124 526.24866 461.59686Q526.74866 461.1125 526.74866 460.3625Q526.74866 459.59686 526.24866 459.09686Q525.74866 458.59686 524.98303 458.59686Q524.23303 458.59686 523.74866 459.09686Q523.2643 459.58124 523.2643 460.3156Z" fill-rule="nonzero"/><path fill="#000000" d="M667.0272 462.8L665.98035 462.8L665.98035 456.08124Q665.5897 456.4406 664.9647 456.8156Q664.35535 457.175 663.871 457.34686L663.871 456.33124Q664.746 455.90936 665.4022 455.33124Q666.0741 454.7375 666.35535 454.175L667.0272 454.175L667.0272 462.8ZM670.0585 458.5656Q670.0585 457.03436 670.371 456.1125Q670.6835 455.175 671.29285 454.675Q671.91785 454.175 672.85535 454.175Q673.54285 454.175 674.0585 454.45624Q674.5897 454.7375 674.9335 455.26874Q675.2772 455.78436 675.4647 456.53436Q675.6522 457.28436 675.6522 458.5656Q675.6522 460.08124 675.3397 461.0031Q675.04285 461.925 674.41785 462.4406Q673.8085 462.9406 672.85535 462.9406Q671.621 462.9406 670.9022 462.05Q670.0585 460.9875 670.0585 458.5656ZM671.1366 458.5656Q671.1366 460.675 671.6366 461.3781Q672.1366 462.08124 672.85535 462.08124Q673.5897 462.08124 674.0741 461.3781Q674.5741 460.675 674.5741 458.5656Q674.5741 456.4406 674.0741 455.7531Q673.5897 455.05 672.8397 455.05Q672.121 455.05 671.6835 455.65936Q671.1366 456.4406 671.1366 458.5656Z" fill-rule="nonzero"/><path fill="#000000" d="M811.3995 462.8L810.3526 462.8L810.3526 456.08124Q809.962 456.4406 809.337 456.8156Q808.7276 457.175 808.2432 457.34686L808.2432 456.33124Q809.1182 455.90936 809.7745 455.33124Q810.44635 454.7375 810.7276 454.175L811.3995 454.175L811.3995 462.8ZM819.9776 461.78436L819.9776 462.8L814.2901 462.8Q814.2901 462.425 814.4151 462.0656Q814.63385 461.4875 815.1026 460.925Q815.587 460.3625 816.4932 459.6281Q817.8995 458.47186 818.38385 457.8Q818.88385 457.1281 818.88385 456.53436Q818.88385 455.90936 818.4307 455.4875Q817.9776 455.05 817.25885 455.05Q816.4932 455.05 816.0401 455.5031Q815.587 455.95624 815.57135 456.76874L814.4932 456.65936Q814.6026 455.4406 815.32135 454.8156Q816.0557 454.175 817.2901 454.175Q818.5245 454.175 819.2432 454.8625Q819.962 455.55 819.962 456.5656Q819.962 457.08124 819.7432 457.58124Q819.5401 458.0656 819.0401 458.6281Q818.5557 459.175 817.4307 460.1281Q816.4776 460.925 816.19635 461.22186Q815.9307 461.5031 815.75885 461.78436L819.9776 461.78436Z" fill-rule="nonzero"/></svg>